<svg xmlns="http://www.w3.org/2000/svg" xmlns:xlink="http://www.w3.org/1999/xlink" width="500" zoomAndPan="magnify" viewBox="0 0 375 374.999991" height="500" preserveAspectRatio="xMidYMid meet" version="1.0"><defs><clipPath id="3d03acbf0b"><path d="M 226.640625 56.265625 L 263.414062 56.265625 L 263.414062 149.476562 L 226.640625 149.476562 Z M 226.640625 56.265625 " clip-rule="nonzero"/></clipPath><clipPath id="f953088659"><path d="M 0.640625 0.265625 L 37.414062 0.265625 L 37.414062 93.476562 L 0.640625 93.476562 Z M 0.640625 0.265625 " clip-rule="nonzero"/></clipPath><clipPath id="226d75ba6a"><rect x="0" width="38" y="0" height="94"/></clipPath><clipPath id="7f79f6e032"><path d="M 57.386719 225.609375 L 319.765625 225.609375 L 319.765625 262.382812 L 57.386719 262.382812 Z M 57.386719 225.609375 " clip-rule="nonzero"/></clipPath><clipPath id="175f48a4f5"><path d="M 0.386719 0.609375 L 262.765625 0.609375 L 262.765625 37.382812 L 0.386719 37.382812 Z M 0.386719 0.609375 " clip-rule="nonzero"/></clipPath><clipPath id="90b98c1983"><rect x="0" width="263" y="0" height="38"/></clipPath><clipPath id="8465eecf0b"><path d="M 170.1875 225.523438 L 206.960938 225.523438 L 206.960938 318.734375 L 170.1875 318.734375 Z M 170.1875 225.523438 " clip-rule="nonzero"/></clipPath><clipPath id="88901584ac"><path d="M 0.1875 0.523438 L 36.960938 0.523438 L 36.960938 93.734375 L 0.1875 93.734375 Z M 0.1875 0.523438 " clip-rule="nonzero"/></clipPath><clipPath id="44a1708cc1"><rect x="0" width="37" y="0" height="94"/></clipPath><clipPath id="e7451848ee"><path d="M 55.234375 112.703125 L 319.765625 112.703125 L 319.765625 149.476562 L 55.234375 149.476562 Z M 55.234375 112.703125 " clip-rule="nonzero"/></clipPath><clipPath id="7a990ce37e"><path d="M 0.234375 0.703125 L 264.765625 0.703125 L 264.765625 37.476562 L 0.234375 37.476562 Z M 0.234375 0.703125 " clip-rule="nonzero"/></clipPath><clipPath id="e4c091524e"><rect x="0" width="265" y="0" height="38"/></clipPath></defs><g clip-path="url(#3d03acbf0b)"><g transform="matrix(1, 0, 0, 1, 226, 56)"><g clip-path="url(#226d75ba6a)"><g clip-path="url(#f953088659)"><path fill="#ffffff" d="M 0.640625 0.265625 L 37.414062 0.265625 L 37.414062 93.492188 L 0.640625 93.492188 Z M 0.640625 0.265625 " fill-opacity="1" fill-rule="nonzero"/></g></g></g></g><g clip-path="url(#7f79f6e032)"><g transform="matrix(1, 0, 0, 1, 57, 225)"><g clip-path="url(#90b98c1983)"><g clip-path="url(#175f48a4f5)"><path fill="#ffffff" d="M 0.386719 0.609375 L 262.828125 0.609375 L 262.828125 37.382812 L 0.386719 37.382812 Z M 0.386719 0.609375 " fill-opacity="1" fill-rule="nonzero"/></g></g></g></g><g clip-path="url(#8465eecf0b)"><g transform="matrix(1, 0, 0, 1, 170, 225)"><g clip-path="url(#44a1708cc1)"><g clip-path="url(#88901584ac)"><path fill="#ffffff" d="M 0.1875 0.523438 L 36.960938 0.523438 L 36.960938 93.75 L 0.1875 93.75 Z M 0.1875 0.523438 " fill-opacity="1" fill-rule="nonzero"/></g></g></g></g><g clip-path="url(#e7451848ee)"><g transform="matrix(1, 0, 0, 1, 55, 112)"><g clip-path="url(#e4c091524e)"><g clip-path="url(#7a990ce37e)"><path fill="#ffffff" d="M 0.234375 0.703125 L 264.832031 0.703125 L 264.832031 37.476562 L 0.234375 37.476562 Z M 0.234375 0.703125 " fill-opacity="1" fill-rule="nonzero"/></g></g></g></g></svg>