<svg xmlns="http://www.w3.org/2000/svg" xmlns:xlink="http://www.w3.org/1999/xlink" width="500" zoomAndPan="magnify" viewBox="0 0 375 374.999991" height="500" preserveAspectRatio="xMidYMid meet" version="1.0"><defs><clipPath id="7bfc11b116"><path d="M 226.640625 56.265625 L 263.414062 56.265625 L 263.414062 149.476562 L 226.640625 149.476562 Z M 226.640625 56.265625 " clip-rule="nonzero"/></clipPath><clipPath id="eeb35c5eb4"><path d="M 0.640625 0.265625 L 37.414062 0.265625 L 37.414062 93.476562 L 0.640625 93.476562 Z M 0.640625 0.265625 " clip-rule="nonzero"/></clipPath><clipPath id="6b69ad24bf"><rect x="0" width="38" y="0" height="94"/></clipPath><clipPath id="0e80006c77"><path d="M 57.386719 225.609375 L 319.765625 225.609375 L 319.765625 262.382812 L 57.386719 262.382812 Z M 57.386719 225.609375 " clip-rule="nonzero"/></clipPath><clipPath id="fe30d08d84"><path d="M 0.386719 0.609375 L 262.765625 0.609375 L 262.765625 37.382812 L 0.386719 37.382812 Z M 0.386719 0.609375 " clip-rule="nonzero"/></clipPath><clipPath id="b27c2a2156"><rect x="0" width="263" y="0" height="38"/></clipPath><clipPath id="7df6dd74f3"><path d="M 170.1875 225.523438 L 206.960938 225.523438 L 206.960938 318.734375 L 170.1875 318.734375 Z M 170.1875 225.523438 " clip-rule="nonzero"/></clipPath><clipPath id="12813ee819"><path d="M 0.1875 0.523438 L 36.960938 0.523438 L 36.960938 93.734375 L 0.1875 93.734375 Z M 0.1875 0.523438 " clip-rule="nonzero"/></clipPath><clipPath id="44396a4807"><rect x="0" width="37" y="0" height="94"/></clipPath><clipPath id="000f32b70b"><path d="M 55.234375 112.703125 L 319.765625 112.703125 L 319.765625 149.476562 L 55.234375 149.476562 Z M 55.234375 112.703125 " clip-rule="nonzero"/></clipPath><clipPath id="71a1017df6"><path d="M 0.234375 0.703125 L 264.765625 0.703125 L 264.765625 37.476562 L 0.234375 37.476562 Z M 0.234375 0.703125 " clip-rule="nonzero"/></clipPath><clipPath id="95495c1f6e"><rect x="0" width="265" y="0" height="38"/></clipPath></defs><g clip-path="url(#7bfc11b116)"><g transform="matrix(1, 0, 0, 1, 226, 56)"><g clip-path="url(#6b69ad24bf)"><g clip-path="url(#eeb35c5eb4)"><path fill="#000000" d="M 0.640625 0.265625 L 37.414062 0.265625 L 37.414062 93.492188 L 0.640625 93.492188 Z M 0.640625 0.265625 " fill-opacity="1" fill-rule="nonzero"/></g></g></g></g><g clip-path="url(#0e80006c77)"><g transform="matrix(1, 0, 0, 1, 57, 225)"><g clip-path="url(#b27c2a2156)"><g clip-path="url(#fe30d08d84)"><path fill="#000000" d="M 0.386719 0.609375 L 262.828125 0.609375 L 262.828125 37.382812 L 0.386719 37.382812 Z M 0.386719 0.609375 " fill-opacity="1" fill-rule="nonzero"/></g></g></g></g><g clip-path="url(#7df6dd74f3)"><g transform="matrix(1, 0, 0, 1, 170, 225)"><g clip-path="url(#44396a4807)"><g clip-path="url(#12813ee819)"><path fill="#000000" d="M 0.1875 0.523438 L 36.960938 0.523438 L 36.960938 93.75 L 0.1875 93.75 Z M 0.1875 0.523438 " fill-opacity="1" fill-rule="nonzero"/></g></g></g></g><g clip-path="url(#000f32b70b)"><g transform="matrix(1, 0, 0, 1, 55, 112)"><g clip-path="url(#95495c1f6e)"><g clip-path="url(#71a1017df6)"><path fill="#000000" d="M 0.234375 0.703125 L 264.832031 0.703125 L 264.832031 37.476562 L 0.234375 37.476562 Z M 0.234375 0.703125 " fill-opacity="1" fill-rule="nonzero"/></g></g></g></g></svg>